<?xml version="1.0" standalone="no"?>
<!DOCTYPE svg PUBLIC "-//W3C//DTD SVG 20010904//EN"
 "http://www.w3.org/TR/2001/REC-SVG-20010904/DTD/svg10.dtd">
<svg version="1.0" xmlns="http://www.w3.org/2000/svg"
 width="750.000000pt" height="750.000000pt" viewBox="0 0 750.000000 750.000000"
 preserveAspectRatio="xMidYMid meet">
<metadata>
Created by potrace 1.14, written by Peter Selinger 2001-2017
</metadata>
<g transform="translate(0.000000,750.000000) scale(0.100000,-0.100000)"
fill="#000000" stroke="none">
<path d="M3463 6915 c-489 -64 -768 -190 -1053 -475 -255 -254 -399 -630 -400
-1042 0 -84 2 -91 30 -90 3 0 100 3 215 7 116 4 217 9 225 10 60 11 613 20
1255 20 688 0 932 -4 1300 -21 339 -16 438 -18 447 -12 12 7 4 234 -12 352
-39 278 -177 565 -367 761 -123 128 -279 248 -408 313 -162 81 -441 154 -700
181 -122 13 -418 11 -532 -4z"/>
<path d="M3159 5286 c-2 -2 -128 -6 -279 -10 -151 -4 -291 -9 -310 -10 -19 -2
-141 -7 -270 -11 -232 -7 -268 -10 -278 -19 -7 -7 -3 -496 4 -578 l7 -68 71
-21 c163 -47 267 -84 371 -133 260 -123 409 -255 506 -448 76 -151 171 -481
243 -841 43 -216 62 -369 77 -622 17 -294 11 -274 94 -302 102 -34 98 -37 91
65 -3 48 -11 197 -16 332 -6 135 -12 281 -15 325 -3 44 -7 134 -10 200 -3 66
-7 158 -10 205 -2 47 -7 141 -10 210 -8 195 -24 534 -35 775 -6 121 -12 247
-13 280 -2 59 -2 59 -37 66 -19 4 -107 12 -195 19 -326 23 -525 57 -831 141
-211 58 -193 46 -187 121 3 35 7 64 8 66 6 7 78 10 380 16 176 4 383 9 460 11
292 11 1043 13 1370 5 187 -5 477 -12 645 -15 342 -8 363 -9 378 -19 6 -4 10
-32 9 -69 l-2 -62 -95 -28 c-319 -94 -547 -137 -905 -167 -132 -12 -241 -23
-243 -25 -6 -6 -10 -73 -32 -560 -5 -121 -12 -267 -15 -325 -5 -102 -20 -409
-30 -635 -3 -60 -7 -155 -10 -210 -3 -55 -10 -208 -15 -340 -5 -132 -12 -277
-16 -323 -4 -66 -3 -82 8 -82 18 0 140 40 150 49 7 6 18 127 33 351 12 192 17
238 41 385 32 193 94 469 150 662 95 332 178 482 336 609 177 141 376 234 681
319 l57 16 0 47 c0 26 2 83 4 127 8 138 9 462 2 473 -3 5 -50 10 -103 11 -54
1 -127 3 -163 6 -76 5 -253 12 -690 25 -292 9 -1352 14 -1361 6z"/>
<path d="M1871 5036 l-63 -134 1 -218 c1 -210 5 -444 16 -829 3 -99 8 -362 11
-585 4 -223 8 -421 10 -440 1 -19 3 -40 3 -46 1 -10 149 -94 166 -94 3 0 4 57
1 128 -3 70 -8 228 -11 352 -3 124 -8 259 -10 300 -2 41 -7 201 -10 355 -4
154 -8 303 -10 330 -2 28 -6 196 -10 375 -4 179 -9 328 -11 331 -2 3 -4 74 -5
158 0 83 -4 151 -8 151 -4 0 -36 -60 -70 -134z"/>
<path d="M5558 5165 c-3 -6 -7 -80 -8 -165 -1 -85 -3 -168 -5 -185 -2 -16 -6
-160 -10 -320 -4 -159 -8 -310 -10 -335 -1 -25 -5 -175 -9 -335 -4 -159 -9
-317 -11 -350 -2 -33 -6 -181 -10 -330 -3 -148 -8 -312 -11 -362 -3 -51 -3
-93 1 -93 21 0 164 86 168 100 2 10 5 116 6 236 1 120 4 220 5 223 2 3 7 236
11 516 3 281 8 548 10 595 2 47 5 189 6 315 l1 230 -64 135 c-35 74 -67 130
-70 125z"/>
<path d="M2655 3835 c-5 -2 -22 -6 -36 -9 -40 -9 -126 -78 -171 -138 -70 -91
-170 -333 -228 -551 -38 -142 -110 -455 -110 -477 0 -13 116 -54 538 -193 295
-98 543 -177 550 -177 15 0 15 16 -3 241 -52 646 -155 1037 -314 1199 -31 31
-76 66 -101 77 -43 20 -104 33 -125 28z"/>
<path d="M4770 3826 c-97 -26 -189 -115 -256 -247 -104 -207 -186 -648 -220
-1181 -5 -88 -4 -108 7 -108 8 0 256 80 551 177 514 169 538 178 538 201 0 54
-134 564 -181 690 -93 248 -147 343 -234 412 -77 61 -132 76 -205 56z"/>
<path d="M2310 1775 l0 -84 86 -3 85 -3 0 -183 c0 -100 2 -189 6 -197 4 -12
25 -15 94 -15 l89 0 0 200 0 200 90 0 90 0 0 85 0 85 -270 0 -270 0 0 -85z"/>
<path d="M2878 1855 c-3 -3 -3 -130 -1 -283 l4 -277 90 -3 89 -3 0 103 0 103
70 3 c51 2 70 -1 71 -10 1 -7 1 -48 1 -91 -1 -43 2 -85 5 -93 4 -11 27 -14 94
-14 l89 0 0 285 0 286 -92 -3 -93 -3 -2 -85 c0 -47 -1 -91 -2 -98 -1 -9 -20
-12 -71 -10 l-70 3 0 98 0 97 -88 0 c-49 0 -91 -2 -94 -5z"/>
<path d="M3436 1851 c-3 -4 -5 -132 -3 -282 l2 -274 93 -3 92 -3 0 286 0 285
-89 0 c-50 0 -92 -4 -95 -9z"/>
<path d="M3755 1850 c-69 -28 -95 -123 -55 -204 12 -26 46 -71 76 -102 30 -31
54 -60 54 -64 0 -13 -41 -20 -112 -20 l-68 0 0 -86 0 -86 168 4 c140 2 172 6
195 21 93 61 82 169 -30 288 -80 84 -77 89 50 89 l87 0 0 85 0 85 -172 -1
c-95 0 -182 -4 -193 -9z"/>
<path d="M4510 1575 l0 -285 89 0 88 0 7 38 c8 49 8 460 0 501 l-6 31 -89 0
-89 0 0 -285z"/>
<path d="M4823 1845 c-45 -19 -67 -58 -67 -119 0 -62 30 -119 98 -186 71 -68
62 -80 -58 -80 l-72 0 -1 -72 c-1 -39 1 -77 4 -85 4 -10 40 -13 157 -13 172 0
222 14 250 69 37 70 10 154 -81 252 -30 32 -52 63 -48 69 3 6 45 10 96 10 l89
0 0 85 0 85 -167 0 c-120 -1 -177 -5 -200 -15z"/>
<path d="M1750 1045 l0 -85 90 0 90 0 0 -195 0 -195 90 0 c65 0 90 3 91 13 0
6 1 93 2 192 l2 180 86 3 c98 3 99 4 99 94 0 84 21 78 -281 78 l-269 0 0 -85z"/>
<path d="M2320 850 l0 -280 94 0 93 0 -1 100 -1 100 73 0 72 0 0 -100 0 -100
90 0 c65 0 90 3 90 13 1 10 0 520 0 540 0 4 -40 7 -90 7 l-90 0 0 -95 0 -95
-70 0 -70 0 0 95 0 95 -95 0 -95 0 0 -280z"/>
<path d="M2890 850 l0 -280 265 0 265 0 0 85 0 85 -176 0 -175 0 3 28 3 27 98
3 97 3 0 49 0 49 -97 3 c-97 3 -98 3 -98 28 l0 25 148 3 147 3 0 84 0 85 -240
0 -240 0 0 -280z"/>
<path d="M3801 938 c33 -106 71 -232 86 -280 l26 -88 93 0 93 0 9 34 c6 18 18
68 28 110 10 42 20 73 23 70 3 -3 19 -51 36 -107 l31 -102 94 -3 95 -3 68 273
c37 150 67 276 67 281 0 4 -40 7 -90 7 l-89 0 -10 -37 c-5 -21 -17 -74 -27
-118 l-17 -80 -36 115 -37 115 -86 3 -87 3 -20 -68 c-11 -37 -26 -90 -33 -118
l-14 -50 -37 118 -38 117 -93 0 -93 0 58 -192z"/>
<path d="M4667 1123 c-9 -15 -177 -530 -177 -542 0 -7 31 -11 99 -11 l99 0 18
50 18 50 82 0 82 0 17 -50 17 -50 108 0 108 0 -92 278 -93 277 -141 3 c-77 1
-143 -1 -145 -5z m181 -231 c18 -54 32 -100 32 -103 0 -7 -128 -5 -135 3 -8 7
56 198 65 198 3 0 20 -44 38 -98z"/>
<path d="M5092 1098 c14 -18 68 -97 122 -175 l97 -142 1 -106 1 -105 93 0 94
0 0 101 0 101 120 173 c66 95 120 175 120 179 0 3 -49 6 -109 6 l-110 0 -53
-80 c-29 -44 -56 -80 -59 -80 -4 0 -30 36 -59 80 l-53 80 -114 0 -115 0 24
-32z"/>
</g>
</svg>
