<svg xmlns="http://www.w3.org/2000/svg" viewBox="0 0 682.12 210.62"><title>logo</title><g id="Layer_2" data-name="Layer 2"><g id="Layer_1-2" data-name="Layer 1"><path d="M595.77,171.86c14.85,10.68,29.12,21.53,38.17,38.75h-6.06q-153.74,0-307.45,0-119.24,0-238.46,0c-3.86,0-6.56-1-8.86-4.09-9-12.15-18-24.33-27.3-36.21-2.76-3.52-6.26-7-10.19-9C20.12,153.59,9.39,141.59,2.52,126A31.5,31.5,0,0,1,0,114.46c-.32-10.57,8.41-16.85,18.49-13.61A25.64,25.64,0,0,1,25.25,104c6.33,4.42,13.33,5.8,20.86,5.28,22.39-1.57,44.76-3.78,67.19-4.52,21.74-.72,43.54.14,65.32.14,11.91,0,23.83-.21,35.73-.56,3.67-.11,4.94-2.46,5.41-6.25,1.15-9.4,4.45-17.25,15.47-19.28,3.29-.61,6.29-3.41,9.14-5.57,8.21-6.21,17.06-11.85,24.19-19.15,8.54-8.74,19.77-9.27,30.07-12.91a78.47,78.47,0,0,0,12.45-5.95c4.34-2.46,8.3-5.57,12.64-8,1.92-1.08,4.6-2.14,6.52-1.64a13.24,13.24,0,0,0,11.56-1.86c1.82-1.17,5.29-1,7.53-.12A91.28,91.28,0,0,0,396.4,28.5a7,7,0,0,1,3.42.38c12.08,4.72,24,9.82,36.24,14.13,5.19,1.83,10.92,2.48,16.46,2.86,4.1.29,7.05,1.32,9.89,4.53,3.62,4.08,8.14,7.38,12.5,11.22l-4.16,1.55c.06.48.11,1,.17,1.46,4.44-.34,9.19.2,13.28-1.18,15.9-5.34,31.33-12.16,47.41-16.81C561.56,38,591.84,30.42,622,22.38c4.81-1.28,9.61-2.63,14.37-4.11,7.06-2.2,13.3-5.44,18.3-11.39,6.28-7.47,13.94-8.68,20.87-4.48,4.13,2.52,6.58,6.11,6.6,11,.1,20.93-6.44,39.13-21.73,53.93a19.11,19.11,0,0,0-5.12,8.71c-7.38,29.93-20,57.1-41.55,79.55C608.34,161.24,602.17,166.11,595.77,171.86Zm-61.51-65.09a35.08,35.08,0,0,1,4,2.38C548.83,118,555,129,554.16,143c-.25,4.19.88,6.58,4.61,8.72,7.06,4.06,13.79,8.71,20.54,13.28,2.34,1.59,4.33,2.15,6.65.18,7.11-6,14.85-11.4,21.28-18.06,18.85-19.51,30.11-43.31,36.61-69.38A40.84,40.84,0,0,1,655.6,57c11.27-10.77,16-24.68,16.22-40.07,0-2.09-1.69-4.21-2.6-6.32-2.14.95-5,1.34-6.3,3-5.91,7.38-13.75,11.44-22.51,14-8.12,2.41-16.22,4.92-24.46,6.81-35.14,8.08-70,16.94-103.79,29.86-13.33,5.11-26,13-42.81,9.89,9.14,11.55,18,21.45,20.53,34.93a17.66,17.66,0,0,1-4.65-4.93c-8.66-12.84-17.23-25.74-26-38.54-3.54-5.19-7.42-9.47-15-8.07-2.83.52-6.4-1.25-9.22-2.75-11.63-6.18-24-10.48-36.53-14.18a8.86,8.86,0,0,0-2.48-.16H373c-2.25,0-4.61.38-6.73-.15-6.27-1.58-12.43-3.64-18.69-5.24-1.35-.34-3.52-.1-4.4.78-4,4-7.92,4.49-12.15.65-6.24,3.69-12.16,7.33-18.22,10.7a50.34,50.34,0,0,1-9.49,4.16c-10,3.11-20.67,3.75-29,11.86-7.07,6.92-15.53,12.43-23.53,18.36-3.8,2.82-7.68,5.93-12,7.51-4.93,1.8-7.23,5.2-8.52,9.54-4.48,15.13-8.71,30.33-13.05,45.5-.76,2.67-1.63,5.31-2.44,8C212,138,218.39,125.6,222,112.26c-4.35,1.31-7.72,3.16-11.11,3.2-11.43.15-22.88-.18-34.31-.63-41.84-1.66-83.52.76-125.17,4.46-11.26,1-22.3.4-32.1-6.49-2.19-1.54-5-2.18-8.56-3.66,0,3.71-.7,6.66.11,9.09,4.37,13.07,11.81,24.49,24.32,30.44,11.77,5.59,19.27,14.22,25,25.2a40.16,40.16,0,0,0,4.69,7.07c5.49,6.53,11.16,12.92,16.76,19.37.8-5,.39-9.23.36-13.5-.08-13.05,7.84-22.28,20.86-23.51,9.1-.86,17.64-2.7,25.25-8.05,5.1-3.58,10.11-3.07,15.15.63,5.71,4.19,11.69,8,17.57,12l6.17-8.66c.7,3.26.12,6,.19,8.76.05,1.78.52,4.18,1.73,5.19,8.55,7.2,14.22,15.8,14.23,27.52H211V181l1.38-.13c.92,5.27,2.12,10.51,2.64,15.82.34,3.46,1.64,4.41,5,4.41q105.25-.12,210.5-.11c1.72,0,3.94-.25,5.1-1.3,9.21-8.39,18.88-16.41,27.13-25.68,9.75-11,18.81-22.43,30.93-31,3.05-2.16,5-5.81,7.45-8.71,2.73,3.16,2.78,3.33,7.67,1.85a31.62,31.62,0,0,1,21.92,1c5,2.07,9.9,4.36,15.76,7-1.68-6.69-2.88-12.87-4.82-18.82S537.06,113.7,534.26,106.77Zm-59.55,93.87c.34-10.37,4-18.82,11.79-24.82,8.7-6.68,17.87-12.73,26.82-19.09,6.68-4.75,13.31-4.47,19.88.16a31.69,31.69,0,0,0,17.17,5.7c16.9.91,24.36,8.06,25.47,24,.32,4.56-.54,9.21-.88,14.13h40.26c-7.64-6.26-14-11.79-20.66-16.88-18.93-14.44-38.36-28.1-59.84-38.61-12.64-6.18-24.89-5.79-36.3,2.34A120.38,120.38,0,0,0,479.18,164c-10.74,11.78-19.81,25.1-32.85,34.69-.29.21-.25.84-.64,2.31,8.68,0,16.95,0,25.22,0C472,201,473.17,200.79,474.71,200.64Zm95-7.95c1.22-16.14-3.11-22.41-18.4-24.42-8.64-1.14-16.53-3.32-23.76-8.05-3.14-2.06-6.36-1.76-9.33.25-9.34,6.36-18.8,12.6-27.82,19.39-3.2,2.4-5.3,6.28-7.64,9.16,4.14,1.16,8.42,1.12,10.38,3.23s1.95,6.53,3,10.78c1.7-2.4,4.12-4.33,4.47-6.58,1.07-7.07,6.25-8.7,11.82-9.92,1.53-.33,3.3.39,5.78.74,5.28-5.1,11.76-3.57,18.31.41.9-1.94,1.57-3.38,2.2-4.72,8.37.65,10.22,6.91,11.65,14.14C554.8,186.89,562.32,185.11,569.71,192.69ZM107.36,196c6.64-12.06,6.64-12.06,12.77-13.19l1.49,4.9c6.47-4.61,12.84-5.68,18.83.32,4.4-3,13.38-.22,15.56,4.44,1.65,3.51,3.6,6.88,5.65,10.75,1.41-4.54,1.54-8.63,3.65-10.68s6.32-2.37,10.33-3.66c-2.83-3.21-5.39-7.26-9-9.94-8.64-6.46-17.73-12.31-26.7-18.31-3.55-2.36-7.13-2.08-10.73.25a42.66,42.66,0,0,1-21.44,7c-14.82.79-21.07,9.26-19.3,24.44C96.38,185.44,102.17,185.67,107.36,196Zm30.33-6h-12.9l6.3,15.51Zm395-.31H520.41l6.07,14.12,1.43,0C529.36,199.47,530.82,195.2,532.7,189.66Zm24.89,18.65,2.78.36c1.55-3.69,3.62-7.27,4.38-11.11.25-1.32-2.76-3.28-4.27-4.95-1.25,1.29-3.48,2.52-3.57,3.88C556.67,200.4,557.31,204.37,557.59,208.31Zm-459.65-.52,2.49-.43c.54-3.5,1.64-7.05,1.34-10.48-.13-1.43-3.12-3.26-5.06-3.65-1.21-.24-4.3,2.41-4.13,2.87C94.06,200.11,96.08,203.92,97.94,207.79Zm76-.47c.14-2.87.29-5.31.36-7.75a4.17,4.17,0,0,0-.34-2.4c-.77-1-1.79-2.33-2.9-2.56a3.84,3.84,0,0,0-3.06,1.7C165.65,200.16,168.5,205.82,173.9,207.32Zm310.29.52,2.46.37c1.48-3,3.36-5.89,4.26-9.06.34-1.19-1.6-3-2.5-4.57-1.41.83-3.88,1.51-4,2.52C483.88,200.62,484.19,204.25,484.19,207.84Z"/><path d="M287.59,133.38c20.36,0,38.34,15.07,41.38,34.83.21,1.35-.35,3.65-1.32,4.23-16.32,9.83-33.42,16.17-52.92,11.15-11.44-2.94-18.56-11.12-24.91-20.23a4.55,4.55,0,0,1,0-3.59C255.71,144.49,271.72,133.37,287.59,133.38Zm5.72,18.84c4.77-.49,6-2.76,6.18-5.93.19-3.42-1.95-6-4.87-5.34a9.24,9.24,0,0,0-5.79,5.52C288.42,147.81,291.69,150.27,293.31,152.22Z"/><path d="M426.75,114.22c14.38,0,24.51,8,33.57,17.95.66.73.67,2.49.37,3.6-4.69,17.16-19.4,28.87-37.06,31-12,1.43-23.46-.65-34.95-3.39-2-.48-4-1-3.92-4C385.06,134.9,400.64,114.4,426.75,114.22Zm3.15,3.42c-2.06,3.13-4.72,5.5-4.28,6.93.66,2.19,3.29,5,5.39,5.27,3.91.53,5.55-3.17,5-6.36C435.69,121.67,432.83,120.31,429.9,117.64Z"/><path d="M517.83,70.33c2.54.88,4.12,2.06,5.13,1.68,36.3-13.6,73.93-22.51,111.43-31.89,6.9-1.73,13.53-4.58,20.29-6.89,1.34-.46,2.73-.8,4.1-1.2l.79,1.29c-4.57,3.34-9,7-13.75,10-14.85,9.2-31.51,14-48,19.26-19.54,6.19-39.05,12.59-55.43,25.37-10.47,8.17-20.06,17.46-30,26.27-1.48,1.31-2.9,2.69-4.41,4.1C502.08,103.41,504.16,82.17,517.83,70.33Z"/><path d="M26.94,127.27c9.5,0,18.31.38,27.08-.08,18.42-1,36.81-2.85,55.24-3.48,17-.57,34,0,50.94.1a84,84,0,0,0,9,.09c1.49-.15,2.86-1.44,5.59-2.93,11.87,2.9,22.25,20,24.13,42.87-2.76-1.3-5.23-2.32-7.57-3.61-19.23-10.59-39.44-18.4-61.36-21.11-7.24-.9-14.57-1.28-21.87-1.59-18.27-.76-36.57-1-54.82-2.13C44.2,134.83,35.55,131.73,26.94,127.27Z"/><path d="M379.31,70.4c-10.15-2.33-18.95,1.34-27.7,5.52-2.9,1.39-3.53,3.09-3.14,6.27,2,16.29,3.75,32.63,5.62,49.31-4-.09-4.69-2.58-5.19-5.47-2.48-14.24-5.16-28.43-7.49-42.69-.54-3.25-2-4.42-5-4.92-9.81-1.59-19.47-1.66-28.89,2.3l-1.11-1.22c1.49-1.73,2.68-4,4.54-5.1,6.62-4.1,14-3.44,21.31-2.64a17.41,17.41,0,0,1,2.93.56c5.74,1.64,10.57.56,15.84-2.74a36.77,36.77,0,0,1,23-5.24C377.44,64.65,380.13,65.62,379.31,70.4Z"/><path d="M464.38,121.34c-2.05-2.32-4.24-4.53-6.11-7-12.1-15.82-27.52-18-45.46-11.43a128.67,128.67,0,0,0-13.06,6.21c-9,4.56-15.65,11-17.66,21.48-.52,2.66-2,5.13-3.1,7.7l-1.69-.16c0-2.45-.12-4.91,0-7.36.74-12.63,8.28-20.5,18.53-26.59,13.46-8,27.47-13.86,43.47-9.74,11.18,2.88,19.21,10.36,25.06,20.1,1,1.72.83,4.2,1.2,6.34Z"/><path d="M239.93,154.79c1.37-25.93,22.91-43.19,48-38.86a200.29,200.29,0,0,1,26.42,6.55c9.14,2.9,12.07,11,13.78,19.93-8.21-9.3-16.88-17.14-29.89-19-12.4-1.83-24.27-3-35.89,3.17S247.18,145.17,239.93,154.79Z"/><path d="M392.88,81.9c6.28-9.81,33.56-13.28,50.87-7.42,14.63,5,29.37,20.68,27.63,33C462.09,94.79,453,83.25,437.53,79.31,422.57,75.5,408.21,79,392.88,81.9Z"/><path d="M297,95.32c-5.71,1.07-11.39,2.25-17.12,3.18-20.13,3.3-36.13,12.2-44,32.18-.91,2.3-1,4.92-2,7.16-.65,1.44-2.25,2.45-3.42,3.66-.48-1.48-1.57-3.07-1.33-4.43,2.75-16,10.36-28.7,25.1-36.35,13.32-6.92,27.42-9.7,42.33-7.49C296.64,93.92,296.81,94.62,297,95.32Z"/><path d="M348,165.15c-1.72,6.35-3.25,12-4.82,17.82,3.72.45,7.06.38,10.05,1.36s5.5,3,8.61,4.79c3.54-5.34,7.27-10.62,15.86-9.39l-9.69-15c.15-.45.23-1,.34-1,4.38-.25,10.11,3.51,12.08,8s.22,7.82-2.79,10.78a97.33,97.33,0,0,1-7.92,6.84c-4.72,3.72-10.41,2.94-15.59,2.19-4.65-.67-9.15-2.88-13.5-4.87-1.28-.58-2.4-2.64-2.64-4.17C336.88,175.31,340.27,169.42,348,165.15Z"/><path d="M595.77,171.86c14.85,10.68,29.12,21.53,38.17,38.75h-6.06q-153.74,0-307.45,0-119.24,0-238.46,0c-3.86,0-6.56-1-8.86-4.09-9-12.15-18-24.33-27.3-36.21-2.76-3.52-6.26-7-10.19-9C20.12,153.59,9.39,141.59,2.52,126A31.5,31.5,0,0,1,0,114.46c-.32-10.57,8.41-16.85,18.49-13.61A25.64,25.64,0,0,1,25.25,104c6.33,4.42,13.33,5.8,20.86,5.28,22.39-1.57,44.76-3.78,67.19-4.52,21.74-.72,43.54.14,65.32.14,11.91,0,23.83-.21,35.73-.56,3.67-.11,4.94-2.46,5.41-6.25,1.15-9.4,4.45-17.25,15.47-19.28,3.29-.61,6.29-3.41,9.14-5.57,8.21-6.21,17.06-11.85,24.19-19.15,8.54-8.74,19.77-9.27,30.07-12.91a78.47,78.47,0,0,0,12.45-5.95c4.34-2.46,8.3-5.57,12.64-8,1.92-1.08,4.6-2.14,6.52-1.64a13.24,13.24,0,0,0,11.56-1.86c1.82-1.17,5.29-1,7.53-.12A91.28,91.28,0,0,0,396.4,28.5a7,7,0,0,1,3.42.38c12.08,4.72,24,9.82,36.24,14.13,5.19,1.83,10.92,2.48,16.46,2.86,4.1.29,7.05,1.32,9.89,4.53,3.62,4.08,8.14,7.38,12.5,11.22l-4.16,1.55c.06.48.11,1,.17,1.46,4.44-.34,9.19.2,13.28-1.18,15.9-5.34,31.33-12.16,47.41-16.81C561.56,38,591.84,30.42,622,22.38c4.81-1.28,9.61-2.63,14.37-4.11,7.06-2.2,13.3-5.44,18.3-11.39,6.28-7.47,13.94-8.68,20.87-4.48,4.13,2.52,6.58,6.11,6.6,11,.1,20.93-6.44,39.13-21.73,53.93a19.11,19.11,0,0,0-5.12,8.71c-7.38,29.93-20,57.1-41.55,79.55C608.34,161.24,602.17,166.11,595.77,171.86Zm-61.51-65.09a35.08,35.08,0,0,1,4,2.38C548.83,118,555,129,554.16,143c-.25,4.19.88,6.58,4.61,8.72,7.06,4.06,13.79,8.71,20.54,13.28,2.34,1.59,4.33,2.15,6.65.18,7.11-6,14.85-11.4,21.28-18.06,18.85-19.51,30.11-43.31,36.61-69.38A40.84,40.84,0,0,1,655.6,57c11.27-10.77,16-24.68,16.22-40.07,0-2.09-1.69-4.21-2.6-6.32-2.14.95-5,1.34-6.3,3-5.91,7.38-13.75,11.44-22.51,14-8.12,2.41-16.22,4.92-24.46,6.81-35.14,8.08-70,16.94-103.79,29.86-13.33,5.11-26,13-42.81,9.89,9.14,11.55,18,21.45,20.53,34.93a17.66,17.66,0,0,1-4.65-4.93c-8.66-12.84-17.23-25.74-26-38.54-3.54-5.19-7.42-9.47-15-8.07-2.83.52-6.4-1.25-9.22-2.75-11.63-6.18-24-10.48-36.53-14.18a8.86,8.86,0,0,0-2.48-.16H373c-2.25,0-4.61.38-6.73-.15-6.27-1.58-12.43-3.64-18.69-5.24-1.35-.34-3.52-.1-4.4.78-4,4-7.92,4.49-12.15.65-6.24,3.69-12.16,7.33-18.22,10.7a50.34,50.34,0,0,1-9.49,4.16c-10,3.11-20.67,3.75-29,11.86-7.07,6.92-15.53,12.43-23.53,18.36-3.8,2.82-7.68,5.93-12,7.51-4.93,1.8-7.23,5.2-8.52,9.54-4.48,15.13-8.71,30.33-13.05,45.5-.76,2.67-1.63,5.31-2.44,8C212,138,218.39,125.6,222,112.26c-4.35,1.31-7.72,3.16-11.11,3.2-11.43.15-22.88-.18-34.31-.63-41.84-1.66-83.52.76-125.17,4.46-11.26,1-22.3.4-32.1-6.49-2.19-1.54-5-2.18-8.56-3.66,0,3.71-.7,6.66.11,9.09,4.37,13.07,11.81,24.49,24.32,30.44,11.77,5.59,19.27,14.22,25,25.2a40.16,40.16,0,0,0,4.69,7.07c5.49,6.53,11.16,12.92,16.76,19.37.8-5,.39-9.23.36-13.5-.08-13.05,7.84-22.28,20.86-23.51,9.1-.86,17.64-2.7,25.25-8.05,5.1-3.58,10.11-3.07,15.15.63,5.71,4.19,11.69,8,17.57,12l6.17-8.66c.7,3.26.12,6,.19,8.76.05,1.78.52,4.18,1.73,5.19,8.55,7.2,14.22,15.8,14.23,27.52H211V181l1.38-.13c.92,5.27,2.12,10.51,2.64,15.82.34,3.46,1.64,4.41,5,4.41q105.25-.12,210.5-.11c1.72,0,3.94-.25,5.1-1.3,9.21-8.39,18.88-16.41,27.13-25.68,9.75-11,18.81-22.43,30.93-31,3.05-2.16,5-5.81,7.45-8.71,2.73,3.16,2.78,3.33,7.67,1.85a31.62,31.62,0,0,1,21.92,1c5,2.07,9.9,4.36,15.76,7-1.68-6.69-2.88-12.87-4.82-18.82S537.06,113.7,534.26,106.77Zm-59.55,93.87c.34-10.37,4-18.82,11.79-24.82,8.7-6.68,17.87-12.73,26.82-19.09,6.68-4.75,13.31-4.47,19.88.16a31.69,31.69,0,0,0,17.17,5.7c16.9.91,24.36,8.06,25.47,24,.32,4.56-.54,9.21-.88,14.13h40.26c-7.64-6.26-14-11.79-20.66-16.88-18.93-14.44-38.36-28.1-59.84-38.61-12.64-6.18-24.89-5.79-36.3,2.34A120.38,120.38,0,0,0,479.18,164c-10.74,11.78-19.81,25.1-32.85,34.69-.29.21-.25.84-.64,2.31,8.68,0,16.95,0,25.22,0C472,201,473.17,200.79,474.71,200.64Zm95-7.95c1.22-16.14-3.11-22.41-18.4-24.42-8.64-1.14-16.53-3.32-23.76-8.05-3.14-2.06-6.36-1.76-9.33.25-9.34,6.36-18.8,12.6-27.82,19.39-3.2,2.4-5.3,6.28-7.64,9.16,4.14,1.16,8.42,1.12,10.38,3.23s1.95,6.53,3,10.78c1.7-2.4,4.12-4.33,4.47-6.58,1.07-7.07,6.25-8.7,11.82-9.92,1.53-.33,3.3.39,5.78.74,5.28-5.1,11.76-3.57,18.31.41.9-1.94,1.57-3.38,2.2-4.72,8.37.65,10.22,6.91,11.65,14.14C554.8,186.89,562.32,185.11,569.71,192.69ZM107.36,196c6.64-12.06,6.64-12.06,12.77-13.19l1.49,4.9c6.47-4.61,12.84-5.68,18.83.32,4.4-3,13.38-.22,15.56,4.44,1.65,3.51,3.6,6.88,5.65,10.75,1.41-4.54,1.54-8.63,3.65-10.68s6.32-2.37,10.33-3.66c-2.83-3.21-5.39-7.26-9-9.94-8.64-6.46-17.73-12.31-26.7-18.31-3.55-2.36-7.13-2.08-10.73.25a42.66,42.66,0,0,1-21.44,7c-14.82.79-21.07,9.26-19.3,24.44C96.38,185.44,102.17,185.67,107.36,196Zm30.33-6h-12.9l6.3,15.51Zm395-.31H520.41l6.07,14.12,1.43,0C529.36,199.47,530.82,195.2,532.7,189.66Zm24.89,18.65,2.78.36c1.55-3.69,3.62-7.27,4.38-11.11.25-1.32-2.76-3.28-4.27-4.95-1.25,1.29-3.48,2.52-3.57,3.88C556.67,200.4,557.31,204.37,557.59,208.31Zm-459.65-.52,2.49-.43c.54-3.5,1.64-7.05,1.34-10.48-.13-1.43-3.12-3.26-5.06-3.65-1.21-.24-4.3,2.41-4.13,2.87C94.06,200.11,96.08,203.92,97.94,207.79Zm76-.47c.14-2.87.29-5.31.36-7.75a4.17,4.17,0,0,0-.34-2.4c-.77-1-1.79-2.33-2.9-2.56a3.84,3.84,0,0,0-3.06,1.7C165.65,200.16,168.5,205.82,173.9,207.32Zm310.29.52,2.46.37c1.48-3,3.36-5.89,4.26-9.06.34-1.19-1.6-3-2.5-4.57-1.41.83-3.88,1.51-4,2.52C483.88,200.62,484.19,204.25,484.19,207.84Z"/><path d="M287.59,133.38c20.36,0,38.34,15.07,41.38,34.83.21,1.35-.35,3.65-1.32,4.23-16.32,9.83-33.42,16.17-52.92,11.15-11.44-2.94-18.56-11.12-24.91-20.23a4.55,4.55,0,0,1,0-3.59C255.71,144.49,271.72,133.37,287.59,133.38Zm5.72,18.84c4.77-.49,6-2.76,6.18-5.93.19-3.42-1.95-6-4.87-5.34a9.24,9.24,0,0,0-5.79,5.52C288.42,147.81,291.69,150.27,293.31,152.22Z"/><path d="M426.75,114.22c14.38,0,24.51,8,33.57,17.95.66.73.67,2.49.37,3.6-4.69,17.16-19.4,28.87-37.06,31-12,1.43-23.46-.65-34.95-3.39-2-.48-4-1-3.92-4C385.06,134.9,400.64,114.4,426.75,114.22Zm3.15,3.42c-2.06,3.13-4.72,5.5-4.28,6.93.66,2.19,3.29,5,5.39,5.27,3.91.53,5.55-3.17,5-6.36C435.69,121.67,432.83,120.31,429.9,117.64Z"/><path d="M517.83,70.33c2.54.88,4.12,2.06,5.13,1.68,36.3-13.6,73.93-22.51,111.43-31.89,6.9-1.73,13.53-4.58,20.29-6.89,1.34-.46,2.73-.8,4.1-1.2l.79,1.29c-4.57,3.34-9,7-13.75,10-14.85,9.2-31.51,14-48,19.26-19.54,6.19-39.05,12.59-55.43,25.37-10.47,8.17-20.06,17.46-30,26.27-1.48,1.31-2.9,2.69-4.41,4.1C502.08,103.41,504.16,82.17,517.83,70.33Z"/><path d="M26.94,127.27c9.5,0,18.31.38,27.08-.08,18.42-1,36.81-2.85,55.24-3.48,17-.57,34,0,50.94.1a84,84,0,0,0,9,.09c1.49-.15,2.86-1.44,5.59-2.93,11.87,2.9,22.25,20,24.13,42.87-2.76-1.3-5.23-2.32-7.57-3.61-19.23-10.59-39.44-18.4-61.36-21.11-7.24-.9-14.57-1.28-21.87-1.59-18.27-.76-36.57-1-54.82-2.13C44.2,134.83,35.55,131.73,26.94,127.27Z"/><path d="M379.31,70.4c-10.15-2.33-18.95,1.34-27.7,5.52-2.9,1.39-3.53,3.09-3.14,6.27,2,16.29,3.75,32.63,5.62,49.31-4-.09-4.69-2.58-5.19-5.47-2.48-14.24-5.16-28.43-7.49-42.69-.54-3.25-2-4.42-5-4.92-9.81-1.59-19.47-1.66-28.89,2.3l-1.11-1.22c1.49-1.73,2.68-4,4.54-5.1,6.62-4.1,14-3.44,21.31-2.64a17.41,17.41,0,0,1,2.93.56c5.74,1.64,10.57.56,15.84-2.74a36.77,36.77,0,0,1,23-5.24C377.44,64.65,380.13,65.62,379.31,70.4Z"/><path d="M464.38,121.34c-2.05-2.32-4.24-4.53-6.11-7-12.1-15.82-27.52-18-45.46-11.43a128.67,128.67,0,0,0-13.06,6.21c-9,4.56-15.65,11-17.66,21.48-.52,2.66-2,5.13-3.1,7.7l-1.69-.16c0-2.45-.12-4.91,0-7.36.74-12.63,8.28-20.5,18.53-26.59,13.46-8,27.47-13.86,43.47-9.74,11.18,2.88,19.21,10.36,25.06,20.1,1,1.72.83,4.2,1.2,6.34Z"/><path d="M239.93,154.79c1.37-25.93,22.91-43.19,48-38.86a200.29,200.29,0,0,1,26.42,6.55c9.14,2.9,12.07,11,13.78,19.93-8.21-9.3-16.88-17.14-29.89-19-12.4-1.83-24.27-3-35.89,3.17S247.18,145.17,239.93,154.79Z"/><path d="M392.88,81.9c6.28-9.81,33.56-13.28,50.87-7.42,14.63,5,29.37,20.68,27.63,33C462.09,94.79,453,83.25,437.53,79.31,422.57,75.5,408.21,79,392.88,81.9Z"/><path d="M297,95.32c-5.71,1.07-11.39,2.25-17.12,3.18-20.13,3.3-36.13,12.2-44,32.18-.91,2.3-1,4.92-2,7.16-.65,1.44-2.25,2.45-3.42,3.66-.48-1.48-1.57-3.07-1.33-4.43,2.75-16,10.36-28.7,25.1-36.35,13.32-6.92,27.42-9.7,42.33-7.49C296.64,93.92,296.81,94.62,297,95.32Z"/><path d="M348,165.15c-1.72,6.35-3.25,12-4.82,17.82,3.72.45,7.06.38,10.05,1.36s5.5,3,8.61,4.79c3.54-5.34,7.27-10.62,15.86-9.39l-9.69-15c.15-.45.23-1,.34-1,4.38-.25,10.11,3.51,12.08,8s.22,7.82-2.79,10.78a97.33,97.33,0,0,1-7.92,6.84c-4.72,3.72-10.41,2.94-15.59,2.19-4.65-.67-9.15-2.88-13.5-4.87-1.28-.58-2.4-2.64-2.64-4.17C336.88,175.31,340.27,169.42,348,165.15Z"/></g></g></svg>